<?xml version="1.0" encoding="UTF-8" standalone="no"?>
<svg width="16px" height="11px" viewBox="0 0 16 11" version="1.1" xmlns="http://www.w3.org/2000/svg" xmlns:xlink="http://www.w3.org/1999/xlink" xmlns:sketch="http://www.bohemiancoding.com/sketch/ns">
    <!-- Generator: Sketch 3.0.4 (8053) - http://www.bohemiancoding.com/sketch -->
    <title>Shape</title>
    <desc>Created with Sketch.</desc>
    <defs></defs>
    <g id="Page-1" stroke="none" stroke-width="1" fill="none" fill-rule="evenodd" sketch:type="MSPage">
        <g id="Artboard-1" sketch:type="MSArtboardGroup" transform="translate(-315.000000, -250.000000)" fill="#555759">
            <g id="Group-2" sketch:type="MSLayerGroup" transform="translate(305.000000, 197.000000)">
                <path d="M24.6666667,62.625 L24.6666667,56.4375 C24.6666667,56.0573125 24.3686667,55.75 24,55.75 L23.3333333,55.75 C23.3333333,55.75 23.0353333,55.75 22.6666667,55.75 L21.3333333,55.75 L21.3333333,53.34375 C21.3333333,53.154 21.184,53 21,53 C20.816,53 20.6666667,53.154 20.6666667,53.34375 L20.6666667,55.75 L19.3333333,55.75 L19.3333333,53.34375 C19.3333333,53.154 19.184,53 19,53 C18.816,53 18.6666667,53.154 18.6666667,53.34375 L18.6666667,55.75 L17.3333333,55.75 L17.3333333,53.34375 C17.3333333,53.154 17.184,53 17,53 C16.816,53 16.6666667,53.154 16.6666667,53.34375 L16.6666667,55.75 L15.3333333,55.75 L15.3333333,53.34375 C15.3333333,53.154 15.184,53 15,53 C14.816,53 14.6666667,53.154 14.6666667,53.34375 L14.6666667,55.75 L13.3333333,55.75 C12.9646667,55.75 12.6666667,55.75 12.6666667,55.75 L12,55.75 C11.6313333,55.75 11.3333333,56.0573125 11.3333333,56.4375 L11.3333333,62.625 L10.6666667,62.625 C10.298,62.625 10,62.9323125 10,63.3125 C10,63.6926875 10.298,64 10.6666667,64 L12,64 L24,64 L25.3333333,64 C25.702,64 26,63.6926875 26,63.3125 C26,62.9323125 25.702,62.625 25.3333333,62.625 L24.6666667,62.625 Z M22.6666667,57.125 C22.6666667,57.884 22.0693333,58.5 21.3333333,58.5 C20.5973333,58.5 20,57.884 20,57.125 L22.6666667,57.125 L22.6666667,57.125 Z M19.3333333,57.125 C19.3333333,57.884 18.736,58.5 18,58.5 C17.264,58.5 16.6666667,57.884 16.6666667,57.125 L19.3333333,57.125 L19.3333333,57.125 Z M16,57.125 C16,57.884 15.4026667,58.5 14.6666667,58.5 C13.9306667,58.5 13.3333333,57.884 13.3333333,57.125 L16,57.125 L16,57.125 Z M12.6666667,62.625 L12.6666667,57.125 C12.6666667,58.2641875 13.562,59.1875 14.6666667,59.1875 C15.3633333,59.1875 15.9753333,58.8196875 16.3333333,58.2628125 C16.6913333,58.8196875 17.3033333,59.1875 18,59.1875 C18.6966667,59.1875 19.3086667,58.8196875 19.6666667,58.2628125 C20.0246667,58.8196875 20.6366667,59.1875 21.3333333,59.1875 C22.438,59.1875 23.3333333,58.2641875 23.3333333,57.125 L23.3333333,62.625 L12.6666667,62.625 L12.6666667,62.625 Z" id="Shape" sketch:type="MSShapeGroup"></path>
            </g>
        </g>
    </g>
</svg>