<?xml version="1.0" encoding="UTF-8" standalone="no"?>
<svg width="12px" height="12px" viewBox="0 0 12 12" version="1.1" xmlns="http://www.w3.org/2000/svg" xmlns:xlink="http://www.w3.org/1999/xlink" xmlns:sketch="http://www.bohemiancoding.com/sketch/ns">
    <!-- Generator: Sketch 3.0.4 (8053) - http://www.bohemiancoding.com/sketch -->
    <title>Group</title>
    <desc>Created with Sketch.</desc>
    <defs></defs>
    <g id="Page-1" stroke="none" stroke-width="1" fill="none" fill-rule="evenodd" sketch:type="MSPage">
        <g id="Artboard-1" sketch:type="MSArtboardGroup" transform="translate(-317.000000, -231.000000)">
            <g id="Group-2" sketch:type="MSLayerGroup" transform="translate(305.000000, 197.000000)">
                <g id="Group" transform="translate(12.000000, 34.000000)" sketch:type="MSShapeGroup">
                    <path d="M12,5 L12,3 C12,0.997 10.125,0.469 10.125,0.469 C8.839,0.1675 7.5635,0 6.186,0 C4.8085,0 3.3795,0.168 2.0935,0.469 C2.0935,0.469 -0.0005,0.997 -0.0005,3 L-0.0005,5 C-0.0005,5.2765 0.223,5.5 0.4995,5.5 L1.4315,5.5 C0.5465,6.402 -0.0005,7.6365 -0.0005,9 L-0.0005,11.5 C-0.0005,11.7765 0.223,12 0.4995,12 L11.4995,12 C11.776,12 11.9995,11.7765 11.9995,11.5 L11.9995,9 C11.9995,7.6365 11.452,6.402 10.5675,5.5 L11.5,5.5 C11.7765,5.5 12,5.2765 12,5 L12,5 Z M11,9 L11,11 L1,11 L1,9 C1,7.493 1.834,6.182 3.0655,5.5 L3.5,5.5 C3.7765,5.5 4,5.2765 4,5 L4,4.128 C5,4.047 5.322,4 6,4 C6.678,4 7.5,4.047 8,4.128 L8,5 C8,5.2765 8.2235,5.5 8.5,5.5 L8.9345,5.5 C10.166,6.182 11,7.493 11,9 L11,9 Z M11,4.5 L9,4.5 L9,3.2645 C8.5,3.0935 7.024,3 6,3 C4.976,3 4,3.094 3,3.2645 L3,4.5 L1,4.5 L1,3 C1,1.792 2.625,1.3875 2.625,1.3875 C3.754,1.1405 4.983,1 6.186,1 C7.389,1 8.465,1.1405 9.5935,1.3875 C9.5935,1.3875 10.9995,1.792 10.9995,3 L10.9995,4.5 L11,4.5 Z" id="Shape" fill="#555759"></path>
                    <path d="M6,5 C4.619,5 3.5,6.119 3.5,7.5 C3.5,8.881 4.619,10 6,10 C7.381,10 8.5,8.881 8.5,7.5 C8.5,6.119 7.381,5 6,5 L6,5 Z M6,9.5 C4.8955,9.5 4,8.6045 4,7.5 C4,6.3955 4.8955,5.5 6,5.5 C7.1045,5.5 8,6.3955 8,7.5 C8,8.6045 7.1045,9.5 6,9.5 L6,9.5 Z" id="Shape" fill="#555759"></path>
                    <circle id="Oval" fill="#000000" cx="5.75" cy="6.25" r="0.25"></circle>
                    <circle id="Oval" fill="#000000" cx="6.25" cy="8.75" r="0.25"></circle>
                    <circle id="Oval" fill="#000000" cx="7.25" cy="7.25" r="0.25"></circle>
                    <circle id="Oval" fill="#000000" cx="4.75" cy="7.75" r="0.25"></circle>
                </g>
            </g>
        </g>
    </g>
</svg>