<?xml version="1.0" encoding="UTF-8" standalone="no"?>
<svg width="20px" height="20px" viewBox="0 0 20 20" version="1.1" xmlns="http://www.w3.org/2000/svg" xmlns:xlink="http://www.w3.org/1999/xlink" xmlns:sketch="http://www.bohemiancoding.com/sketch/ns">
    <!-- Generator: Sketch 3.0.4 (8053) - http://www.bohemiancoding.com/sketch -->
    <title>Search Icon</title>
    <desc>Created with Sketch.</desc>
    <defs></defs>
    <g id="Page-1" stroke="none" stroke-width="1" fill="none" fill-rule="evenodd" sketch:type="MSPage">
        <g id="Artboard-1" sketch:type="MSArtboardGroup" transform="translate(-184.000000, -148.000000)" fill="#3A3A3A">
            <g id="Group" sketch:type="MSLayerGroup" transform="translate(18.000000, 138.000000)">
                <g id="Search-Icon" transform="translate(166.000000, 10.000000)" sketch:type="MSShapeGroup">
                    <path d="M19.7558333,16.2208333 L14.2625,10.7266667 C14.73,9.74833333 15,8.6575 15,7.5 C15,3.3575 11.6425,5.92118946e-16 7.5,5.92118946e-16 C3.3575,5.92118946e-16 0,3.3575 0,7.5 C0,11.6425 3.3575,15 7.5,15 C8.6575,15 9.74833333,14.73 10.7266667,14.2625 L16.2208333,19.7558333 C16.5466667,20.0816667 17.0733333,20.0816667 17.3991667,19.7558333 L19.7558333,17.3991667 C20.0816667,17.0733333 20.0816667,16.5458333 19.7558333,16.2208333 L19.7558333,16.2208333 Z M7.5,13.3333333 C4.27833333,13.3333333 1.66666667,10.7216667 1.66666667,7.5 C1.66666667,4.27833333 4.27833333,1.66666667 7.5,1.66666667 C10.7216667,1.66666667 13.3333333,4.27833333 13.3333333,7.5 C13.3333333,10.7216667 10.7216667,13.3333333 7.5,13.3333333 L7.5,13.3333333 Z M12.1775,13.3558333 C12.6133333,13.0075 13.0075,12.6133333 13.3558333,12.1775 L16.2208333,15.0425 L15.0425,16.2208333 L12.1775,13.3558333 L12.1775,13.3558333 Z M16.81,17.9883333 L15.6316667,16.81 L16.81,15.6316667 L17.9883333,16.81 L16.81,17.9883333 L16.81,17.9883333 Z" id="Shape"></path>
                </g>
            </g>
        </g>
    </g>
</svg>