<?xml version="1.0" encoding="UTF-8" standalone="no"?>
<svg width="11px" height="11px" viewBox="0 0 11 11" version="1.1" xmlns="http://www.w3.org/2000/svg" xmlns:xlink="http://www.w3.org/1999/xlink" xmlns:sketch="http://www.bohemiancoding.com/sketch/ns">
    <!-- Generator: Sketch 3.0.4 (8053) - http://www.bohemiancoding.com/sketch -->
    <title>add-icon</title>
    <desc>Created with Sketch.</desc>
    <defs></defs>
    <g id="Page-1" stroke="none" stroke-width="1" fill="none" fill-rule="evenodd" sketch:type="MSPage">
        <g id="Artboard-1" sketch:type="MSArtboardGroup" transform="translate(-32.000000, -151.000000)" fill="#FFFFFF">
            <path d="M37,156 L37,154 L38,154 L38,156 L40,156 L40,157 L38,157 L38,159 L37,159 L37,157 L35,157 L35,156 L37,156 Z M37.5,162 C40.5375661,162 43,159.537566 43,156.5 C43,153.462434 40.5375661,151 37.5,151 C34.4624339,151 32,153.462434 32,156.5 C32,159.537566 34.4624339,162 37.5,162 Z M37.5,161 C39.9852814,161 42,158.985281 42,156.5 C42,154.014719 39.9852814,152 37.5,152 C35.0147186,152 33,154.014719 33,156.5 C33,158.985281 35.0147186,161 37.5,161 Z" id="add-icon" sketch:type="MSShapeGroup"></path>
        </g>
    </g>
</svg>