<?xml version="1.0" encoding="UTF-8" standalone="no"?>
<svg width="122px" height="32px" viewBox="0 0 122 32" version="1.1" xmlns="http://www.w3.org/2000/svg" xmlns:xlink="http://www.w3.org/1999/xlink" xmlns:sketch="http://www.bohemiancoding.com/sketch/ns">
    <!-- Generator: Sketch 3.0.4 (8053) - http://www.bohemiancoding.com/sketch -->
    <title>cliniko-logo-d6f8c3d2f8f1763b7ecf74f26cab8cc7</title>
    <desc>Created with Sketch.</desc>
    <defs></defs>
    <g id="Page-1" stroke="none" stroke-width="1" fill="none" fill-rule="evenodd" sketch:type="MSPage">
        <g id="Artboard-1" sketch:type="MSArtboardGroup" transform="translate(-21.000000, -55.000000)">
            <g id="cliniko-logo-d6f8c3d2f8f1763b7ecf74f26cab8cc7" sketch:type="MSLayerGroup" transform="translate(21.000000, 55.250000)">
                <g id="Group" sketch:type="MSShapeGroup">
                    <path d="M105.035975,13.1542373 C104.001235,13.1542373 103.249654,12.5938983 102.969004,12.3477966 C102.759646,12.1637288 102.737053,11.8428814 102.918296,11.630339 C103.100543,11.4183051 103.417342,11.3959322 103.6267,11.5794915 C104.043407,11.9455932 104.58814,12.1576271 105.100239,12.1362712 C105.798601,12.1123729 106.285095,11.7416949 106.461819,11.5830508 C106.669169,11.3969492 106.985967,11.4157627 107.170724,11.6267797 C107.354477,11.8372881 107.334897,12.1581356 107.127547,12.3447458 C106.581811,12.8338983 105.855333,13.1283051 105.133374,13.1527119 C105.100741,13.1537288 105.068107,13.1542373 105.035975,13.1542373 L105.035975,13.1542373 Z" id="Shape" fill="#FFFFFF"></path>
                    <path d="M109.305473,4.27118644 C109.381284,4.22237288 109.457597,4.17508475 109.535416,4.13033898 C109.457597,4.17508475 109.381284,4.22288136 109.305473,4.27118644 L109.305473,4.27118644 Z" id="Shape" fill="#91D4F4"></path>
                    <path d="M109.773391,4.00372881 C109.832132,3.97423729 109.89037,3.94474576 109.951119,3.91728814 C109.890872,3.94423729 109.832634,3.97423729 109.773391,4.00372881 L109.773391,4.00372881 Z" id="Shape" fill="#91D4F4"></path>
                    <path d="M108.600584,4.82338983 C108.618658,4.80610169 108.637235,4.78932203 108.655309,4.77254237 C108.637235,4.78983051 108.618658,4.80610169 108.600584,4.82338983 L108.600584,4.82338983 Z" id="Shape" fill="#91D4F4"></path>
                    <path d="M108.92642,4.54372881 C108.986667,4.4959322 109.046914,4.44966102 109.108667,4.40542373 C109.046914,4.44966102 108.986165,4.4959322 108.92642,4.54372881 L108.92642,4.54372881 Z" id="Shape" fill="#91D4F4"></path>
                    <g transform="translate(108.444444, 4.576271)" id="Shape" fill="#91D4F4">
                        <path d="M0.210864198,0.196779661 C0.297720165,0.116440678 0.388592593,0.0406779661 0.481975309,-0.0325423729 C0.388090535,0.0401694915 0.29872428,0.116949153 0.210864198,0.196779661 L0.210864198,0.196779661 Z"></path>
                    </g>
                    <g transform="translate(108.946502, 4.067797)" id="Shape" fill="#91D4F4">
                        <path d="M0.162164609,0.337118644 C0.226427984,0.290847458 0.292699588,0.246610169 0.358971193,0.203389831 C0.292197531,0.246610169 0.226930041,0.290847458 0.162164609,0.337118644 L0.162164609,0.337118644 Z"></path>
                    </g>
                    <g transform="translate(109.448560, 4.067797)" id="Shape" fill="#91D4F4">
                        <path d="M0.0868559671,0.0625423729 C0.164674897,0.0183050847 0.244,-0.0238983051 0.325333333,-0.0640677966 C0.244502058,-0.0233898305 0.164674897,0.0177966102 0.0868559671,0.0625423729 L0.0868559671,0.0625423729 Z"></path>
                    </g>
                    <path d="M96.7680905,2.49559322 C96.8107654,2.45084746 96.8444033,2.39288136 96.8690041,2.31661017 C96.9217202,2.15237288 97.0191193,2.02016949 97.1516626,1.91186441 C97.4122305,1.69983051 97.7501152,1.59152542 98.07093,1.51576271 C98.8019259,1.34288136 99.595679,1.34288136 100.330189,1.49237288 C100.831745,1.5940678 101.583325,1.80864407 101.741975,2.38169492 C101.804733,2.60694915 101.924222,2.61762712 102.136091,2.64661017 C102.379086,2.67915254 103.351572,2.87135593 103.606115,2.93084746 C103.704016,2.95372881 104.041901,3.07525424 104.069514,2.90694915 C104.084576,2.81491525 103.954041,2.64101695 103.903835,2.56627119 C103.81949,2.43966102 103.730123,2.31711864 103.636239,2.19762712 C103.448469,1.96016949 103.243128,1.73745763 103.020214,1.53254237 C102.573885,1.12016949 102.06279,0.782033898 101.511029,0.533898305 C100.808148,0.217627119 100.032469,0.0386440678 99.2136132,0.0386440678 C98.0377942,0.0386440678 96.8780412,0.412881356 95.9206173,1.10542373 C95.5762058,1.35457627 95.2599095,1.64288136 94.9777531,1.96322034 C94.8683045,2.08728814 94.1880165,2.83627119 94.4179588,2.96237288 C94.5193745,3.01779661 94.7473086,2.96084746 94.872823,2.93084746 C95.4692675,2.7879661 96.3021811,2.66033898 96.5004938,2.62627119 C96.615465,2.60694915 96.702321,2.56372881 96.7680905,2.49559322 L96.7680905,2.49559322 Z" id="Shape" fill="#91D4F4"></path>
                    <path d="M99.2798848,4.64491525 C99.9576626,4.6459322 100.82321,3.10576271 100.783547,2.82 C100.665564,1.96322034 97.8811523,1.94847458 97.8219095,2.8179661 C97.8033333,3.10220339 98.6061235,4.64338983 99.2798848,4.64491525 L99.2798848,4.64491525 Z" id="Shape" fill="#FFFFFF"></path>
                    <g transform="translate(0.000000, 7.118644)" id="Shape">
                        <path d="M17.271786,5.76 L17.7341811,5.23627119 L16.9765761,6.00457627 C17.0870288,5.94966102 17.1874403,5.86881356 17.271786,5.76 L17.271786,5.76 Z"></path>
                        <path d="M17.1527984,17.7259322 C17.1392428,17.7167797 17.1241811,17.7152542 17.1106255,17.7071186 L17.7487407,18.2883051 L17.1974815,17.7620339 L17.1527984,17.7259322 L17.1527984,17.7259322 Z"></path>
                        <path d="M77.3168724,8.86067797 C74.0846255,8.86067797 72.6728395,11.9105085 72.6728395,14.8342373 C72.6728395,18.2028814 74.5555556,20.7452542 77.2224856,20.7452542 L77.2536132,20.7452542 C79.8889136,20.7452542 81.8660165,18.2344068 81.8660165,14.7391525 C81.8660165,12.1327119 80.5792428,8.86067797 77.3168724,8.86067797 L77.3168724,8.86067797 Z"></path>
                        <path d="M77.3791276,6.76322034 C73.2060247,6.76322034 69.8492675,9.78254237 69.8492675,14.930339 C69.8492675,19.7918644 73.0493827,22.8416949 77.1280988,22.8416949 L77.1592263,22.8416949 C80.7680165,22.8416949 84.6895885,20.3638983 84.6895885,14.6435593 C84.6895885,9.97271186 81.7410041,6.76322034 77.3791276,6.76322034 L77.3791276,6.76322034 Z M77.2536132,20.7452542 L77.2224856,20.7452542 C74.5555556,20.7452542 72.6728395,18.2028814 72.6728395,14.8342373 C72.6728395,11.9105085 74.0846255,8.86067797 77.3168724,8.86067797 C80.5792428,8.86067797 81.8660165,12.1332203 81.8660165,14.7391525 C81.8660165,18.2344068 79.8889136,20.7452542 77.2536132,20.7452542 L77.2536132,20.7452542 Z" fill="#FFFFFF"></path>
                        <path d="M17.7487407,18.2883051 L17.1106255,17.7071186 C16.7601893,17.4955932 16.3449877,17.5383051 15.9860165,17.8291525 C14.3844527,19.0535593 12.9696543,19.9901695 10.587893,19.9901695 C6.26618107,19.9901695 2.74976955,16.3215254 2.74976955,11.8128814 C2.74976955,7.28745763 6.26618107,3.60559322 10.587893,3.60559322 C12.4234156,3.60559322 14.4336543,4.40694915 15.9453498,5.73 C16.2977942,6.08694915 16.6758436,6.15254237 16.9770782,6.0040678 L17.7346831,5.23576271 C17.9068889,5.06186441 18.0022798,4.8320339 18.0022798,4.58949153 C18.0022798,4.33169492 17.8973498,4.08305085 17.6844774,3.86949153 C15.4779342,1.96322034 13.2909712,1.11355932 10.5929136,1.11355932 C4.75097119,1.1140678 0,5.92576271 0,11.8408475 C0,17.7249153 4.75097119,22.510678 10.5924115,22.510678 C13.3406749,22.510678 15.8087901,21.5125424 17.7346831,19.6194915 C17.9289794,19.4227119 18.038428,19.1237288 18.0188477,18.8410169 C18.0017778,18.6040678 17.8963457,18.399661 17.7487407,18.2883051 L17.7487407,18.2883051 Z" fill="#FFFFFF"></path>
                        <path d="M22.9857037,-0.0691525424 L22.2898519,-0.0691525424 C21.7195144,-0.0691525424 21.2576214,0.399152542 21.2576214,0.976779661 L21.2576214,21.4474576 C21.2576214,22.0245763 21.7195144,22.4923729 22.2898519,22.4923729 L22.9857037,22.4923729 C23.5565432,22.4923729 24.0189383,22.0245763 24.0189383,21.4474576 L24.0189383,0.976779661 C24.0189383,0.399152542 23.5565432,-0.0691525424 22.9857037,-0.0691525424 L22.9857037,-0.0691525424 Z" fill="#FFFFFF"></path>
                        <path d="M29.3261893,7.11305085 L28.6303374,7.11305085 C28.06,7.11305085 27.598107,7.58084746 27.598107,8.15847458 L27.598107,21.4474576 C27.598107,22.0245763 28.06,22.4923729 28.6303374,22.4923729 L29.3261893,22.4923729 C29.8970288,22.4923729 30.3594239,22.0245763 30.3594239,21.4474576 L30.3594239,8.15847458 C30.3594239,7.58084746 29.8970288,7.11305085 29.3261893,7.11305085 L29.3261893,7.11305085 Z" fill="#FFFFFF"></path>
                        <path d="M51.954428,7.11305085 L51.2580741,7.11305085 C50.6877366,7.11305085 50.2253416,7.58084746 50.2253416,8.15847458 L50.2253416,21.4474576 C50.2253416,22.0245763 50.6877366,22.4923729 51.2580741,22.4923729 L51.954428,22.4923729 C52.5242634,22.4923729 52.9866584,22.0245763 52.9866584,21.4474576 L52.9866584,8.15847458 C52.9866584,7.58084746 52.5242634,7.11305085 51.954428,7.11305085 L51.954428,7.11305085 Z" fill="#FFFFFF"></path>
                        <path d="M62.6171276,13.3774576 C62.8179506,13.1740678 64.5425185,11.3125424 66.0667654,9.6640678 C66.3077531,9.40372881 66.5392016,9.15355932 66.7631193,8.91152542 C66.7821975,8.89169492 66.8007737,8.87186441 66.8188477,8.85101695 C66.9835226,8.66644068 67.0869465,8.42389831 67.0869465,8.15542373 C67.0869465,7.58949153 66.6411193,7.13033898 66.0863457,7.11355932 C66.0753004,7.11305085 66.0647572,7.11 66.054214,7.11 C66.0431687,7.11 66.0331276,7.11305085 66.0220823,7.11355932 L65.6043704,7.11355932 C65.5938272,7.11305085 65.583284,7.11 65.5727407,7.11 C65.5621975,7.11 65.5511523,7.11305085 65.5411111,7.11355932 C65.2770288,7.12169492 65.0375473,7.22949153 64.8593169,7.40288136 L64.8231687,7.44101695 L59.265893,13.3316949 L59.265893,1.01135593 C59.2663951,0.999661017 59.2694074,0.987966102 59.2694074,0.976779661 C59.2694074,0.965084746 59.2663951,0.953898305 59.265893,0.94220339 C59.2473169,0.381355932 58.794963,-0.0686440678 58.237177,-0.0686440678 L57.5358025,-0.0686440678 C56.9659671,-0.0686440678 56.503572,0.399661017 56.503572,0.977288136 L56.503572,21.4474576 C56.503572,22.0245763 56.9659671,22.4923729 57.5358025,22.4923729 L58.2361728,22.4923729 C58.7939588,22.4923729 59.2463128,22.0423729 59.2648889,21.4825424 C59.2653909,21.4708475 59.2684033,21.459661 59.2684033,21.4479661 C59.2684033,21.4362712 59.2653909,21.4250847 59.2648889,21.4133898 L59.2648889,16.71 C59.2648889,16.71 60.4386996,15.3625424 60.7700576,15.0274576 C65.1836461,16.0601695 65.9136379,19.6057627 66.0426667,21.4362712 C66.0426667,21.4413559 66.0416626,21.4454237 66.0416626,21.45 C66.0416626,21.4789831 66.0476872,21.5044068 66.0496955,21.5323729 C66.0918683,22.0708475 66.5311687,22.4959322 67.073893,22.4959322 L67.5814733,22.4959322 C68.1508066,22.4959322 68.6121975,22.0291525 68.6142058,21.4530508 L68.6142058,21.45 C68.6142058,21.439322 68.6111934,21.4271186 68.6106914,21.4164407 C68.424428,19.3261017 67.8214568,14.7020339 62.6171276,13.3774576 L62.6171276,13.3774576 Z" fill="#FFFFFF"></path>
                        <path d="M40.6581317,6.76322034 C38.6991029,6.76322034 37.1136049,7.84779661 36.3605185,9.27762712 L36.3580082,8.20830508 C36.3585103,8.19152542 36.3630288,8.17525424 36.3630288,8.1579661 C36.3630288,8.14067797 36.3590123,8.1259322 36.3580082,8.10966102 C36.3329053,7.55491525 35.88507,7.11254237 35.3307984,7.11254237 L34.8960165,7.11254237 C34.3332099,7.11254237 33.8768395,7.56966102 33.8667984,8.13711864 C33.8667984,8.14474576 33.8642881,8.15084746 33.8642881,8.1579661 C33.8642881,8.16559322 33.8667984,8.17271186 33.8667984,8.17983051 C33.8703128,9.04779661 33.8763374,9.82728814 33.8763374,11.2754237 L33.8763374,21.3279661 C33.8718189,21.3676271 33.8647901,21.4062712 33.8647901,21.4469492 C33.8647901,21.4876271 33.872321,21.5252542 33.8763374,21.5649153 C33.9355802,22.0861017 34.3673498,22.4913559 34.8965185,22.4913559 L35.6079342,22.4913559 C36.1692346,22.4913559 36.6240988,22.0362712 36.6371523,21.4713559 C36.6371523,21.4622034 36.6401646,21.4545763 36.6401646,21.4464407 C36.6401646,21.4372881 36.6371523,21.429661 36.6371523,21.4215254 L36.6371523,13.9494915 C36.6371523,10.4628814 38.7397695,9.05135593 40.5280988,9.05135593 C43.1327737,9.05135593 44.0425021,11.1488136 44.0425021,13.6266102 L44.0425021,21.4225424 C44.0425021,21.430678 44.0399918,21.4383051 44.0399918,21.4474576 C44.0399918,21.4555932 44.0425021,21.4632203 44.0425021,21.4723729 C44.0555556,22.0372881 44.5109218,22.4923729 45.0717202,22.4923729 L45.7715885,22.4923729 C46.3414239,22.4923729 46.8038189,22.0245763 46.8038189,21.4474576 L46.8038189,13.3088136 C46.8033169,8.03440678 43.3762716,6.76322034 40.6581317,6.76322034 L40.6581317,6.76322034 Z" fill="#FFFFFF"></path>
                        <path d="M28.9787654,1.04389831 C27.9435226,1.04389831 27.2526914,1.80610169 27.2526914,2.79152542 C27.2526914,3.71288136 27.9113909,4.50711864 28.9155062,4.50711864 L28.9466337,4.50711864 C30.0135062,4.50711864 30.6727078,3.71288136 30.6727078,2.79152542 C30.6732099,1.80610169 29.9818765,1.04389831 28.9787654,1.04389831 L28.9787654,1.04389831 Z" fill="#FFFFFF"></path>
                        <path d="M51.606,1.04389831 C50.5707572,1.04389831 49.8799259,1.80610169 49.8799259,2.79152542 C49.8799259,3.71288136 50.5391276,4.50711864 51.5432428,4.50711864 L51.5738683,4.50711864 C52.6412428,4.50711864 53.3004444,3.71288136 53.3004444,2.79152542 C53.3009465,1.80610169 52.6096132,1.04389831 51.606,1.04389831 L51.606,1.04389831 Z" fill="#FFFFFF"></path>
                    </g>
                    <path d="M93.8631852,28.5330508 L93.8631852,28.5411864 C93.8636872,28.5340678 93.8641893,28.5274576 93.8651934,28.519322 C93.8646914,28.5244068 93.8636872,28.5279661 93.8631852,28.5330508 L93.8631852,28.5330508 Z" id="Shape" fill="#91D4F4"></path>
                    <path d="M104.783942,4.69830508 C104.755827,4.55135593 104.720683,4.40542373 104.679514,4.26152542 C104.618263,4.04288136 104.580609,3.97067797 104.362214,3.89135593 C104.148337,3.8140678 103.323959,3.55118644 102.093918,3.41949153 C101.778123,3.3859322 101.509021,3.28576271 101.316733,3.57813559 C101.121432,3.87457627 100.952741,4.18016949 100.730329,4.45932203 C100.385918,4.8920339 99.8662881,5.49152542 99.264321,5.49101695 C98.7271193,5.49 98.2687407,4.98661017 97.9549547,4.60016949 C97.7501152,4.34745763 97.5703786,4.07644068 97.4016872,3.79728814 C97.0115885,3.15305085 96.4106255,3.39661017 95.7840576,3.51152542 C95.360823,3.58881356 94.1081893,3.88525424 93.9465267,3.98084746 C93.8149877,4.05813559 93.7542387,4.21525424 93.7195967,4.35152542 C93.6794321,4.50762712 93.6462963,4.66525424 93.6196872,4.82491525 C93.5659671,5.14271186 93.538856,5.46508475 93.538856,5.78745763 C93.538856,6.54661017 93.686963,7.30372881 93.9771523,8.00389831 C94.4069136,9.04322034 95.1434321,9.94220339 96.0692263,10.5671186 C96.3006749,10.7237288 96.5441728,10.8635593 96.7962058,10.9830508 C96.9367819,11.0501695 97.1476461,11.1157627 97.1195309,11.3115254 C97.0778601,11.5932203 96.5361399,11.7859322 96.3202551,11.8962712 C95.4612346,12.3376271 94.654428,12.8816949 93.9098765,13.5005085 C92.8560576,14.3776271 91.9312675,15.4098305 91.1545844,16.5437288 C90.1339012,18.0345763 89.3722798,19.6947458 88.8360823,21.4220339 C88.1226584,23.720339 87.8013416,26.1294915 87.73507,28.5325424 C87.7340658,28.550339 87.7295473,28.5681356 87.7295473,28.5859322 C87.7295473,28.599661 87.7330617,28.6118644 87.7335638,28.6245763 C87.7541481,29.1798305 88.2024856,29.6257627 88.7557531,29.6257627 L91.0355967,29.6257627 C91.5235967,29.6257627 91.9292593,29.28 92.0341893,28.819322 C92.0427243,28.7379661 92.0517613,28.6545763 92.0607984,28.5722034 C92.2897366,26.4686441 92.7877778,23.6801695 93.8737284,21.4815254 C95.1434321,18.9091525 97.042716,16.610339 99.464642,15.080339 C99.8025267,14.8672881 100.150453,14.6689831 100.508922,14.4940678 C100.970313,14.2683051 101.513037,14.0954237 101.073235,13.5376271 C100.588749,12.9223729 100.22777,12.2344068 100.046025,11.4655932 C99.9556543,11.0857627 99.9049465,10.6911864 99.9049465,10.2828814 C99.9049465,8.11525424 101.314222,6.13779661 103.345547,5.45491525 C103.619671,5.36237288 103.901325,5.29474576 104.187498,5.2520339 C104.420955,5.21694915 104.62228,5.20016949 104.725202,5.08271186 C104.791473,5.00745763 104.816576,4.88949153 104.783942,4.69830508 L104.783942,4.69830508 Z" id="Shape" fill="#91D4F4"></path>
                    <path d="M121.992971,28.4476271 C121.887539,26.0720339 121.448239,23.7035593 120.585202,21.4876271 C119.936543,19.8213559 119.050914,18.2491525 117.943877,16.8518644 C117.178741,15.8867797 116.308675,15.0015254 115.344724,14.2388136 C115.149926,14.0847458 114.951111,13.9352542 114.74828,13.7923729 C114.619753,13.7023729 114.365712,13.5722034 114.321029,13.4074576 C114.315506,13.3876271 114.312996,13.369322 114.312494,13.3515254 C114.31149,13.1669492 114.574066,13.0815254 114.717152,12.9915254 C115.197621,12.69 115.627885,12.3076271 115.985852,11.8642373 C116.722872,10.9505085 117.129539,9.79220339 117.129539,8.61254237 C117.129539,5.76559322 114.8507,3.45813559 112.040181,3.45813559 C111.294626,3.45813559 110.587728,3.62491525 109.950115,3.91627119 C109.889868,3.94372881 109.83163,3.97322034 109.772387,4.00271186 C109.691556,4.04288136 109.61223,4.08508475 109.533909,4.12932203 C109.456091,4.1740678 109.379778,4.22186441 109.303967,4.27016949 C109.237695,4.31338983 109.171424,4.35762712 109.10716,4.40389831 C109.045407,4.44864407 108.98516,4.49491525 108.924914,4.54220339 C108.831531,4.6159322 108.740658,4.69118644 108.653802,4.77152542 C108.635728,4.78779661 108.617152,4.80457627 108.599078,4.82237288 C108.322947,5.08576271 107.537226,5.76457627 107.915276,6.18966102 C108.057358,6.34932203 108.264206,6.47084746 108.419342,6.62186441 C108.73865,6.93305085 109.01679,7.2879661 109.244724,7.67237288 C109.710132,8.4579661 109.956642,9.36610169 109.956642,10.2818644 C109.956642,11.2398305 109.690551,12.1322034 109.230165,12.9076271 C109.190502,12.979322 109.147827,13.0484746 109.104148,13.1181356 C109.101136,13.1232203 109.097621,13.1283051 109.094609,13.1328814 C109.085572,13.1466102 109.074527,13.159322 109.064988,13.1730508 C108.874206,13.4577966 108.628198,13.7059322 108.939473,13.9733898 C109.090091,14.1035593 109.258782,14.2144068 109.422955,14.3257627 C109.948107,14.6842373 110.477276,15.0350847 110.984354,15.4189831 C112.630601,16.6652542 114.046905,18.1947458 115.142897,19.9586441 C115.44865,20.4513559 115.730305,20.9598305 115.987358,21.48 C117.080337,23.6928814 117.577877,26.5032203 117.805309,28.610339 L117.805309,28.6230508 C117.806313,28.6469492 117.812337,28.6698305 117.814848,28.6937288 C117.86907,29.2159322 118.298329,29.6242373 118.828,29.6242373 L120.979819,29.6242373 C121.523547,29.6242373 121.963852,29.1940678 121.998996,28.6530508 C121.99749,28.5869492 121.995984,28.5162712 121.992971,28.4476271 L121.992971,28.4476271 Z" id="Shape" fill="#6DC3EE"></path>
                    <path d="M105.146428,26.9898305 C105.137391,26.9938983 105.12986,27 105.120823,27.0035593 C105.12986,27 105.136889,26.9938983 105.146428,26.9898305 L105.146428,26.9898305 Z" id="Shape"></path>
                    <path d="M116.006436,28.6108475 C115.996897,28.5294915 115.992379,28.4491525 115.982337,28.3683051 C115.821177,27.0167797 115.555086,25.6830508 115.160971,24.3976271 C114.567037,22.4638983 113.688938,20.6394915 112.507095,19.1201695 C111.483399,17.8042373 110.230263,16.7227119 108.815967,16.0652542 C108.314412,15.8318644 107.796288,15.6523729 107.266115,15.5359322 C106.848403,15.4433898 106.0913,15.2857627 105.8227,15.5964407 C105.72028,15.7164407 105.665053,15.9040678 105.684634,16.190339 C105.728815,16.8594915 105.806634,17.5291525 105.870897,18.1962712 C105.984864,19.3759322 106.100337,20.5550847 106.216815,21.7337288 C106.275053,22.329661 106.33279,22.9245763 106.394543,23.5184746 C106.425671,23.8174576 106.549679,24.9127119 106.535119,25.159322 C106.506,25.6738983 105.430091,26.7254237 105.261399,26.9089831 C105.25437,26.9171186 105.243325,26.919661 105.235794,26.9267797 L105.2373,26.9384746 C105.209687,26.9613559 105.176551,26.9730508 105.144922,26.989322 C105.135383,26.9933898 105.128856,26.9994915 105.119317,27.0030508 C104.936066,27.0813559 104.710642,27.0477966 104.59316,26.919661 C104.424971,26.7350847 103.34856,25.6840678 103.31944,25.17 C103.305383,24.9228814 103.429391,23.8281356 103.460016,23.5291525 C103.52177,22.9352542 103.580008,22.339322 103.638247,21.7444068 C103.648288,21.6462712 103.657325,21.5486441 103.667366,21.4505085 C103.667366,21.4505085 103.888272,18.9844068 104.004749,17.8535593 C104.067506,17.2418644 104.165909,16.6169492 104.175951,16.0001695 C104.19051,15.0483051 103.066905,15.4286441 102.564346,15.5425424 C102.042206,15.6594915 101.529605,15.8384746 101.036082,16.0688136 C99.6242963,16.7283051 98.3716626,17.8098305 97.3494733,19.1257627 C96.1676296,20.6450847 95.290535,22.4694915 94.6986091,24.4011864 C94.2909383,25.7338983 94.0223374,27.1174576 93.8636872,28.5188136 C93.8626831,28.5269492 93.8621811,28.5335593 93.861679,28.540678 C93.8606749,28.5686441 93.8606749,28.5971186 93.8601728,28.6250847 C93.8807572,29.180339 94.3290947,29.6262712 94.8823621,29.6262712 L114.986757,29.6262712 C115.530486,29.6262712 115.97079,29.1961017 116.006436,28.6550847 C116.00744,28.640339 116.006938,28.6255932 116.006436,28.6108475 L116.006436,28.6108475 Z" id="Shape" fill="#FFFFFF"></path>
                    <path d="M105.238305,26.9389831 L105.236798,26.9272881 C105.209687,26.9522034 105.180066,26.9730508 105.145926,26.9898305 C105.177556,26.9740678 105.211193,26.9618644 105.238305,26.9389831 L105.238305,26.9389831 Z" id="Shape" fill="#FFFFFF"></path>
                </g>
            </g>
        </g>
    </g>
</svg>